# xmcd CD database file
#
# Track frame offsets:
#	182
#	24235
#	39752
#	54942
#	71815
#	84945
#	103365
#	139135
#	155687
#
# Disc length: 2327 seconds
#
# Revision: 0
# Processed by: cddbd v1.5.2PL0 Copyright (c) Steve Scherf et al.
# Submitted via: CDex 1.70beta2
#
DISCID=6e091509
DTITLE=Earl Hines - The Indispensable Earl Hines Volumes 5/6 (1944-1966) "The Bob Thiele Sessions" [CD 2_2)
DYEAR=1992
DGENRE=Jazz
TTITLE0=Black coffee
TTITLE1=You always hurt the one you love
TTITLE2=Save it pretty mama
TTITLE3=Bye bye baby
TTITLE4=Smoke rings
TTITLE5=Shoe shine boy
TTITLE6=The stanley steamer
TTITLE7=Bernie's tune
TTITLE8=Dream of you
EXTD=YEAR: 1992
EXTT0=
EXTT1=
EXTT2=
EXTT3=
EXTT4=
EXTT5=
EXTT6=
EXTT7=
EXTT8=
PLAYORDER=
